<?xml version="1.0" encoding="UTF-8"?>
<svg id="Layer_1" data-name="Layer 1" xmlns="http://www.w3.org/2000/svg" viewBox="0 0 25 25">
  <defs>
    <style>
      .cls-1 {
        fill: #221f20;
      }

      .cls-2 {
        fill: #231f20;
      }
    </style>
  </defs>
  <path class="cls-1" d="M23.35,9.69s-.38-.71-1.12-.71h-1.23l.87-.87c.52-.52,.29-1.29,.29-1.29l-.83-3.15-3.15-.83s-.77-.23-1.29,.29l-.87,.87v-1.23c0-.74-.71-1.12-.71-1.12L12.5,0l-2.82,1.64s-.71,.38-.71,1.12v1.23l-.87-.87c-.52-.52-1.29-.29-1.29-.29l-3.15,.83-.83,3.15s-.23,.77,.29,1.29l.87,.87h-1.23c-.74,0-1.12,.71-1.12,.71L0,12.5l1.65,2.81s.38,.71,1.12,.71h1.23l-.87,.87c-.52,.52-.29,1.29-.29,1.29l.83,3.15,3.15,.83s.77,.23,1.29-.29l.87-.87v1.23c0,.74,.71,1.12,.71,1.12l2.82,1.65,2.81-1.65s.71-.38,.71-1.12v-1.23l.87,.87c.52,.52,1.29,.29,1.29,.29l3.15-.83,.83-3.15s.23-.77-.29-1.29l-.87-.87h1.23c.74,0,1.12-.71,1.12-.71l1.65-2.81-1.65-2.81Zm-8.17-3.6l2.02-2.02s.34-.26,.84-.12c.49,.14,2.43,.59,2.43,.59,0,0,.45,1.94,.59,2.43,.14,.49-.12,.84-.12,.84l-2.02,2.02v.04h2.87s.43,.06,.68,.51c.25,.45,1.3,2.13,1.3,2.13,0,0-1.05,1.69-1.3,2.14-.25,.45-.68,.5-.68,.5h-2.86v.04s2,2.02,2,2.02c0,0,.26,.34,.12,.84-.14,.49-.59,2.43-.59,2.43,0,0-1.94,.45-2.43,.59-.5,.14-.84-.12-.84-.12l-2.02-2.02-.04,.02v2.85s-.06,.43-.51,.68c-.44,.25-2.13,1.3-2.13,1.3,0,0-1.69-1.05-2.14-1.3-.45-.25-.51-.68-.51-.68v-2.85l-.04-.02-2.02,2.02s-.34,.26-.84,.12c-.49-.14-2.43-.59-2.43-.59,0,0-.45-1.94-.59-2.43-.14-.49,.13-.84,.13-.84l2.02-2.02-.02-.04H3.22s-.43-.06-.68-.5c-.25-.45-1.3-2.14-1.3-2.14,0,0,1.05-1.69,1.3-2.13,.25-.45,.68-.51,.68-.51h2.86l.02-.04-2.02-2.02s-.26-.34-.13-.84c.14-.49,.59-2.43,.59-2.43,0,0,1.94-.45,2.43-.59,.5-.14,.84,.12,.84,.12l2.02,2.02,.04-.02V3.22s.06-.43,.51-.68c.44-.25,2.14-1.3,2.14-1.3,0,0,1.69,1.05,2.13,1.3,.45,.25,.51,.68,.51,.68v2.86l.04,.02Z"/>
  <path class="cls-2" d="M20.47,10.79s-.24-.43-.71-.43h-2.08l1.47-1.47c.33-.33,.2-.81,.2-.81l-.47-1.95-1.95-.47s-.47-.14-.81,.2l-1.47,1.47v-2.08c0-.47-.43-.71-.43-.71l-1.71-1.05-1.71,1.05s-.43,.24-.43,.71v2.08l-1.47-1.47c-.33-.33-.81-.2-.81-.2l-1.95,.47-.47,1.95s-.13,.48,.2,.81l1.47,1.47h-2.08c-.47,0-.71,.43-.71,.43l-1.05,1.71,1.05,1.71s.24,.43,.71,.43h2.08l-1.47,1.47c-.33,.33-.2,.81-.2,.81l.47,1.95,1.95,.47s.48,.13,.81-.2l1.47-1.47v2.08c0,.47,.43,.71,.43,.71l1.71,1.05,1.71-1.05s.43-.24,.43-.71v-2.08l1.47,1.47c.33,.33,.81,.2,.81,.2l1.95-.47,.47-1.95s.13-.47-.2-.81l-1.47-1.47h2.08c.47,0,.71-.43,.71-.43l1.05-1.71-1.05-1.71Zm-4.18-4.35s.22-.17,.52-.09c.31,.08,1.5,.34,1.5,.34,0,0,.26,1.2,.34,1.5,.08,.31-.09,.52-.09,.52l-1.29,1.29v-2.47h-2.07l1.09-1.09Zm-5.4-.9s.04-.27,.31-.43c.27-.16,1.3-.83,1.3-.83,0,0,1.03,.67,1.3,.83s.31,.43,.31,.43v1.99h-3.21v-1.99Zm-4.46,3.18s-.17-.22-.09-.52c.08-.31,.34-1.5,.34-1.5,0,0,1.2-.26,1.5-.34,.31-.08,.52,.09,.52,.09l1.09,1.09h-2.19v2.36l-1.17-1.17Zm-.91,5.4s-.27-.03-.43-.31c-.16-.27-.82-1.3-.82-1.3,0,0,.67-1.03,.82-1.3,.16-.27,.43-.31,.43-.31h2.08v3.22h-2.08Zm3.18,4.46s-.22,.17-.52,.09c-.31-.08-1.5-.33-1.5-.33,0,0-.26-1.2-.34-1.5-.08-.31,.09-.52,.09-.52l1.17-1.17v2.19h2.36l-1.25,1.25Zm5.4,.91s-.03,.27-.31,.43c-.27,.16-1.3,.82-1.3,.82,0,0-1.03-.66-1.3-.82-.27-.16-.31-.43-.31-.43v-2.16h3.21v2.16Zm-5.29-10.65h7.36v7.36h-7.36v-7.36Zm9.75,7.47s.17,.21,.09,.52c-.08,.3-.34,1.5-.34,1.5,0,0-1.2,.26-1.5,.34-.31,.08-.52-.09-.52-.09l-1.25-1.25h2.24v-2.31l1.29,1.29Zm1.33-2.49c-.16,.27-.43,.31-.43,.31h-2.19v-3.22h2.19s.27,.04,.43,.31c.16,.27,.83,1.3,.83,1.3,0,0-.66,1.03-.83,1.3"/>
  <path class="cls-2" d="M15.8,11.5c-.99-.72-1.5-.52-1.58-.52-.08,0-1.7,.64-1.72,.65-.02,0-1.64-.65-1.72-.65-.08,0-.59-.21-1.58,.52l2.95,1.13-2.49,1.25h.72l2.12-1.08,2.12,1.08h.72l-2.49-1.25,2.95-1.13Zm-3.3,1.13c-.07,0-.12-.06-.12-.12s.06-.12,.12-.12c.07,0,.12,.06,.12,.12s-.05,.12-.12,.12Zm0-.45c-.23,0-.32,.17-.32,.17l-2.35-.93c.46-.29,.98-.12,.98-.12l1.69,.67,1.69-.67s.52-.16,.98,.12l-2.35,.93s-.09-.17-.32-.17Z"/>
</svg>